<?xml version="1.0" encoding="UTF-8" standalone="no"?>
<!DOCTYPE svg PUBLIC "-//W3C//DTD SVG 1.1//EN" "http://www.w3.org/Graphics/SVG/1.1/DTD/svg11.dtd">
<svg version="1.1" xmlns="http://www.w3.org/2000/svg" xmlns:xlink="http://www.w3.org/1999/xlink" preserveAspectRatio="xMidYMid meet" viewBox="0 0 640 640" width="640" height="640"><defs><path d="M576.59 311.76C576.59 319.49 500.49 325.76 406.59 325.76C312.69 325.76 236.59 319.49 236.59 311.76C236.59 300.56 236.59 210.96 236.59 199.76C236.59 192.03 312.69 185.76 406.59 185.76C500.49 185.76 576.59 192.03 576.59 199.76C576.59 222.16 576.59 289.36 576.59 311.76Z" id="et24zawkQ"></path><path d="M576.59 328.23C576.59 335.96 500.49 342.23 406.59 342.23C312.69 342.23 236.59 335.96 236.59 328.23" id="d1xwVZJQ6s"></path><path d="M576.59 436C576.59 443.73 500.49 450 406.59 450C312.69 450 236.59 443.73 236.59 436" id="a1ut0dbv0V"></path><path d="M236.59 437.27L236.59 326.73" id="a7yxkTzqv"></path><path d="M577.4 198.47C577.4 206.2 501.3 212.47 407.4 212.47C313.5 212.47 237.4 206.2 237.4 198.47" id="aFPlzcU5"></path><path d="M576.49 437.47L576.49 326.92" id="d3aVGUpVmi"></path><path d="M576.78 561.88C576.78 569.61 500.68 575.88 406.78 575.88C312.88 575.88 236.78 569.61 236.78 561.88" id="d7Tuiy9l"></path><path d="M236.78 563.15L236.78 452.6" id="a1wbKfmcnu"></path><path d="M576.68 563.35L576.68 452.8" id="e3OKkl0oGx"></path><path d="M576.96 454C576.96 461.73 500.86 468 406.96 468C313.06 468 236.96 461.73 236.96 454" id="c19BFWYFSP"></path></defs><g><g><g><use xlink:href="#et24zawkQ" opacity="1" fill="#ffffff" fill-opacity="1"></use><g><use xlink:href="#et24zawkQ" opacity="1" fill-opacity="0" stroke="#000000" stroke-width="7" stroke-opacity="1"></use></g></g><g><use xlink:href="#d1xwVZJQ6s" opacity="1" fill="#000000" fill-opacity="0"></use><g><use xlink:href="#d1xwVZJQ6s" opacity="1" fill-opacity="0" stroke="#000000" stroke-width="7" stroke-opacity="1"></use></g></g><g><use xlink:href="#a1ut0dbv0V" opacity="1" fill="#000000" fill-opacity="0"></use><g><use xlink:href="#a1ut0dbv0V" opacity="1" fill-opacity="0" stroke="#000000" stroke-width="7" stroke-opacity="1"></use></g></g><g><g><use xlink:href="#a7yxkTzqv" opacity="1" fill-opacity="0" stroke="#000000" stroke-width="7" stroke-opacity="1"></use></g></g><g><use xlink:href="#aFPlzcU5" opacity="1" fill="#000000" fill-opacity="0"></use><g><use xlink:href="#aFPlzcU5" opacity="1" fill-opacity="0" stroke="#000000" stroke-width="7" stroke-opacity="1"></use></g></g><g><g><use xlink:href="#d3aVGUpVmi" opacity="1" fill-opacity="0" stroke="#000000" stroke-width="7" stroke-opacity="1"></use></g></g><g><use xlink:href="#d7Tuiy9l" opacity="1" fill="#000000" fill-opacity="0"></use><g><use xlink:href="#d7Tuiy9l" opacity="1" fill-opacity="0" stroke="#000000" stroke-width="7" stroke-opacity="1"></use></g></g><g><g><use xlink:href="#a1wbKfmcnu" opacity="1" fill-opacity="0" stroke="#000000" stroke-width="7" stroke-opacity="1"></use></g></g><g><g><use xlink:href="#e3OKkl0oGx" opacity="1" fill-opacity="0" stroke="#000000" stroke-width="7" stroke-opacity="1"></use></g></g><g><use xlink:href="#c19BFWYFSP" opacity="1" fill="#000000" fill-opacity="0"></use><g><use xlink:href="#c19BFWYFSP" opacity="1" fill-opacity="0" stroke="#000000" stroke-width="7" stroke-opacity="1"></use></g></g></g></g></svg>