<svg xmlns="http://www.w3.org/2000/svg" xmlns:xlink="http://www.w3.org/1999/xlink" xmlns:lucid="lucid" width="1280" height="224.27"><g transform="translate(-60 -140)" lucid:page-tab-id="0_0"><path d="M154.66 259.88c0 22.83-13.92 41.43-31.06 41.43-17.15 0-31.07-18.6-31.07-41.42s13.92-41.42 31.07-41.42c17.14 0 31.06 18.6 31.06 41.42z" stroke="#000" stroke-opacity="0" stroke-width=".14" fill="#fff"/><path d="M92.53 260.45c0-22.97 13.84-41.43 31.07-41.43 17.14 0 30.97 18.46 30.97 41.43v.14l-30.97-.15H92.53z" stroke="#000" stroke-opacity="0" stroke-width=".14" fill="#75aadb"/><path d="M124.8 207.04l-.86-24.94s0-.42-.34-.42c-.35 0-.35.42-.35.42l-.96 24.94h2.5zm0 0z" stroke="#000" stroke-opacity="0" stroke-width=".14" fill="#fcbf49"/><path d="M124.8 207.04l-.86-24.94s0-.42-.34-.42c-.35 0-.35.42-.35.42l-.96 24.94m2.5 0z" stroke="#843511" stroke-width=".3" fill-opacity="0"/><path d="M125.86 199c1.4-3.1.17-5.77 1.56-8.44 1.4-2.68.53-4.94.6-6.2.1-1.27 1.15-1.55.8-1.98-.26-.28-1.3.43-1.66 1.98-.43 1.7.6 2.67-1.13 5.9-1.65 3.25-.26 4.95-2 7.9l1.83.85zm0 0z" stroke="#000" stroke-opacity="0" stroke-width=".14" fill="#fcbf49"/><path d="M125.86 199c1.4-3.1.17-5.77 1.56-8.44 1.4-2.68.53-4.94.6-6.2.1-1.27 1.15-1.55.8-1.98-.26-.28-1.3.43-1.66 1.98-.43 1.7.6 2.67-1.13 5.9-1.65 3.25-.26 4.95-2 7.9m1.83.85z" stroke="#843511" stroke-width=".3" fill-opacity="0"/><path d="M123.6 205.63l-23.85 1s-.43 0-.43.4c0 .3.43.3.43.3l23.85.98v-2.67zm0 0z" stroke="#000" stroke-opacity="0" stroke-width=".14" fill="#fcbf49"/><path d="M123.6 205.63l-23.85 1s-.43 0-.43.4c0 .3.43.3.43.3l23.85.98m0-2.67z" stroke="#843511" stroke-width=".3" fill-opacity="0"/><path d="M115.85 204.65c-2.96-1.55-5.48-.14-8-1.7-2.6-1.4-4.8-.42-6-.56-1.14-.15-1.57-1.14-1.84-.85-.25.28.28 1.4 1.93 1.7 1.56.55 2.52-.58 5.65 1.26 3.14 1.7 4.7.3 7.5 1.98l.77-1.83zm0 0z" stroke="#000" stroke-opacity="0" stroke-width=".14" fill="#fcbf49"/><path d="M115.85 204.65c-2.96-1.55-5.48-.14-8-1.7-2.6-1.4-4.8-.42-6-.56-1.14-.15-1.57-1.14-1.84-.85-.25.28.28 1.4 1.93 1.7 1.56.55 2.52-.58 5.65 1.26 3.14 1.7 4.7.3 7.5 1.98m.77-1.83z" stroke="#843511" stroke-width=".3" fill-opacity="0"/><path d="M123.6 208.3l23.84-.98s.43 0 .43-.28c0-.42-.43-.42-.43-.42l-23.84-1v2.7zm0 0z" stroke="#000" stroke-opacity="0" stroke-width=".14" fill="#fcbf49"/><path d="M123.6 208.3l23.84-.98s.43 0 .43-.28c0-.42-.43-.42-.43-.42l-23.84-1m0 2.7z" stroke="#843511" stroke-width=".3" fill-opacity="0"/><path d="M131.34 209.3c2.96 1.55 5.4.28 8 1.7 2.53 1.4 4.8.55 6 .55 1.14.14 1.5 1.13 1.84 1 .26-.3-.26-1.42-1.92-1.84-1.56-.42-2.52.57-5.65-1.12-3.13-1.83-4.7-.28-7.56-2.12l-.7 1.84zm0 0z" stroke="#000" stroke-opacity="0" stroke-width=".14" fill="#fcbf49"/><path d="M131.34 209.3c2.96 1.55 5.4.28 8 1.7 2.53 1.4 4.8.55 6 .55 1.14.14 1.5 1.13 1.84 1 .26-.3-.26-1.42-1.92-1.84-1.56-.42-2.52.57-5.65-1.12-3.13-1.83-4.7-.28-7.56-2.12m-.7 1.84z" stroke="#843511" stroke-width=".3" fill-opacity="0"/><path d="M124.47 207.9l16.18-18.2s.35-.4.1-.55c-.2-.3-.53 0-.53 0l-17.5 16.9 1.75 1.84zm0 0z" stroke="#000" stroke-opacity="0" stroke-width=".14" fill="#fcbf49"/><path d="M124.47 207.9l16.18-18.2s.35-.4.1-.55c-.2-.3-.53 0-.53 0l-17.5 16.9m1.75 1.84z" stroke="#843511" stroke-width=".3" fill-opacity="0"/><path d="M130.64 202.96c3.14-1.13 4-3.8 6.8-4.8 2.78-.84 3.82-3.1 4.6-3.94.96-.7 1.92-.28 1.92-.7 0-.43-1.13-.7-2.53.14-1.47.84-1.4 2.25-4.78 3.38-3.4.98-3.57 3.24-6.8 4.08l.8 1.84zm0 0z" stroke="#000" stroke-opacity="0" stroke-width=".14" fill="#fcbf49"/><path d="M130.64 202.96c3.14-1.13 4-3.8 6.8-4.8 2.78-.84 3.82-3.1 4.6-3.94.96-.7 1.92-.28 1.92-.7 0-.43-1.13-.7-2.53.14-1.47.84-1.4 2.25-4.78 3.38-3.4.98-3.57 3.24-6.8 4.08m.8 1.84z" stroke="#843511" stroke-width=".3" fill-opacity="0"/><path d="M124.47 206.06l-17.5-16.9s-.34-.3-.6 0c-.18.13.17.55.17.55l16.2 18.2 1.73-1.84zm0 0z" stroke="#000" stroke-opacity="0" stroke-width=".14" fill="#fcbf49"/><path d="M124.47 206.06l-17.5-16.9s-.34-.3-.6 0c-.18.13.17.55.17.55l16.2 18.2m1.73-1.84z" stroke="#843511" stroke-width=".3" fill-opacity="0"/><path d="M119.77 199.57c-1.13-3.1-3.74-4.08-4.6-7.04-.8-2.82-3.06-3.95-3.84-4.8-.8-.98-.26-1.97-.7-1.97-.35 0-.7 1.13.17 2.68.8 1.4 2.18 1.4 3.22 4.93 1.05 3.53 3.14 3.67 3.83 7.05l1.92-.85zm0 0z" stroke="#000" stroke-opacity="0" stroke-width=".14" fill="#fcbf49"/><path d="M119.77 199.57c-1.13-3.1-3.74-4.08-4.6-7.04-.8-2.82-3.06-3.95-3.84-4.8-.8-.98-.26-1.97-.7-1.97-.35 0-.7 1.13.17 2.68.8 1.4 2.18 1.4 3.22 4.93 1.05 3.53 3.14 3.67 3.83 7.05m1.92-.85z" stroke="#843511" stroke-width=".3" fill-opacity="0"/><path d="M124.73 207.46L133 184.2s.17-.4-.1-.55c-.34-.14-.52.28-.52.28l-9.92 22.55 2.27.98zm0 0z" stroke="#000" stroke-opacity="0" stroke-width=".14" fill="#fcbf49"/><path d="M124.73 207.46L133 184.2s.17-.4-.1-.55c-.34-.14-.52.28-.52.28l-9.92 22.55m2.27.98z" stroke="#843511" stroke-width=".3" fill-opacity="0"/><path d="M128.64 200.42c2.44-2.26 2.27-5.07 4.53-7.05 2.26-1.97 2.35-4.5 2.87-5.5.52-1.12 1.57-1.12 1.4-1.4-.1-.42-1.3-.28-2.27 1.13-.96 1.26-.44 2.53-3.22 4.93-2.7 2.4-2.1 4.37-4.7 6.48l1.4 1.42zm0 0z" stroke="#000" stroke-opacity="0" stroke-width=".14" fill="#fcbf49"/><path d="M128.64 200.42c2.44-2.26 2.27-5.07 4.53-7.05 2.26-1.97 2.35-4.5 2.87-5.5.52-1.12 1.57-1.12 1.4-1.4-.1-.42-1.3-.28-2.27 1.13-.96 1.26-.44 2.53-3.22 4.93-2.7 2.4-2.1 4.37-4.7 6.48m1.4 1.42z" stroke="#843511" stroke-width=".3" fill-opacity="0"/><path d="M124.12 205.77l-22.45-8.6s-.35-.13-.52.15c-.1.28.26.42.26.42l21.67 10.43 1.05-2.4zm0 0z" stroke="#000" stroke-opacity="0" stroke-width=".14" fill="#fcbf49"/><path d="M124.12 205.77l-22.45-8.6s-.35-.13-.52.15c-.1.28.26.42.26.42l21.67 10.43m1.05-2.4z" stroke="#843511" stroke-width=".3" fill-opacity="0"/><path d="M117.33 201.7c-2.17-2.55-4.96-2.27-6.8-4.66-1.9-2.4-4.25-2.4-5.38-2.96-1.05-.57-.96-1.7-1.3-1.55-.36.14-.27 1.4 1.04 2.4 1.3.98 2.6.42 4.77 3.38 2.35 2.82 4.27 2.12 6.27 4.94l1.4-1.55zm0 0z" stroke="#000" stroke-opacity="0" stroke-width=".14" fill="#fcbf49"/><path d="M117.33 201.7c-2.17-2.55-4.96-2.27-6.8-4.66-1.9-2.4-4.25-2.4-5.38-2.96-1.05-.57-.96-1.7-1.3-1.55-.36.14-.27 1.4 1.04 2.4 1.3.98 2.6.42 4.77 3.38 2.35 2.82 4.27 2.12 6.27 4.94m1.4-1.55z" stroke="#843511" stroke-width=".3" fill-opacity="0"/><path d="M123.07 208.17l22.45 8.6s.35.28.53-.15c.08-.28-.35-.42-.35-.42l-21.58-10.43-1.05 2.4zm0 0z" stroke="#000" stroke-opacity="0" stroke-width=".14" fill="#fcbf49"/><path d="M123.07 208.17l22.45 8.6s.35.28.53-.15c.08-.28-.35-.42-.35-.42l-21.58-10.43m-1.05 2.4z" stroke="#843511" stroke-width=".3" fill-opacity="0"/><path d="M123.07 205.77L101.4 216.2s-.34.14-.25.42c.17.43.52.14.52.14l22.45-8.6-1.05-2.4zm0 0z" stroke="#000" stroke-opacity="0" stroke-width=".14" fill="#fcbf49"/><path d="M123.07 205.77L101.4 216.2s-.34.14-.25.42c.17.43.52.14.52.14l22.45-8.6m-1.05-2.4z" stroke="#843511" stroke-width=".3" fill-opacity="0"/><path d="M115.6 207.9c-3.32-.15-5.14 1.96-8.02 1.68-2.95-.28-4.7 1.4-5.74 1.83-1.13.43-1.83-.4-2-.13-.17.42.78 1.13 2.35 1 1.64-.3 2.08-1.56 5.65-1.28 3.56.4 4.43-1.56 7.74-1v-2.1zm0 0z" stroke="#000" stroke-opacity="0" stroke-width=".14" fill="#fcbf49"/><path d="M115.6 207.9c-3.32-.15-5.14 1.96-8.02 1.68-2.95-.28-4.7 1.4-5.74 1.83-1.13.43-1.83-.4-2-.13-.17.42.78 1.13 2.35 1 1.64-.3 2.08-1.56 5.65-1.28 3.56.4 4.43-1.56 7.74-1m0-2.1z" stroke="#843511" stroke-width=".3" fill-opacity="0"/><path d="M124.12 208.17l21.58-10.43s.43-.14.35-.42c-.18-.28-.53-.14-.53-.14l-22.45 8.6 1.05 2.4zm0 0z" stroke="#000" stroke-opacity="0" stroke-width=".14" fill="#fcbf49"/><path d="M124.12 208.17l21.58-10.43s.43-.14.35-.42c-.18-.28-.53-.14-.53-.14l-22.45 8.6m1.05 2.4z" stroke="#843511" stroke-width=".3" fill-opacity="0"/><path d="M131.6 206.06c3.3.28 5.14-1.98 8-1.7 2.88.43 4.62-1.4 5.75-1.83 1.13-.28 1.83.57 2 .14.18-.42-.78-1.12-2.35-.98-1.65.27-2.1 1.68-5.65 1.26-3.57-.3-4.44 1.55-7.75 1.12v1.98zm0 0z" stroke="#000" stroke-opacity="0" stroke-width=".14" fill="#fcbf49"/><path d="M131.6 206.06c3.3.28 5.14-1.98 8-1.7 2.88.43 4.62-1.4 5.75-1.83 1.13-.28 1.83.57 2 .14.18-.42-.78-1.12-2.35-.98-1.65.27-2.1 1.68-5.65 1.26-3.57-.3-4.44 1.55-7.75 1.12m0 1.98z" stroke="#843511" stroke-width=".3" fill-opacity="0"/><path d="M124.73 206.48l-10-22.55s-.1-.42-.44-.28c-.28.14-.1.56-.1.56l8.26 23.26 2.27-.98zm0 0z" stroke="#000" stroke-opacity="0" stroke-width=".14" fill="#fcbf49"/><path d="M124.73 206.48l-10-22.55s-.1-.42-.44-.28c-.28.14-.1.56-.1.56l8.26 23.26m2.27-.98z" stroke="#843511" stroke-width=".3" fill-opacity="0"/><path d="M122.73 198.6c.17-3.4-1.92-5.23-1.66-8.33.35-2.96-1.4-4.8-1.74-6.06-.35-1.1.44-1.82.1-1.96-.36-.14-1.06.85-.88 2.54.26 1.7 1.57 2.1 1.13 5.78-.26 3.8 1.57 4.65 1.04 8.03h2zm0 0z" stroke="#000" stroke-opacity="0" stroke-width=".14" fill="#fcbf49"/><path d="M122.73 198.6c.17-3.4-1.92-5.23-1.66-8.33.35-2.96-1.4-4.8-1.74-6.06-.35-1.1.44-1.82.1-1.96-.36-.14-1.06.85-.88 2.54.26 1.7 1.57 2.1 1.13 5.78-.26 3.8 1.57 4.65 1.04 8.03m2 0z" stroke="#843511" stroke-width=".3" fill-opacity="0"/><path d="M124.2 207.04l-.6-17.05-.6 17.04h1.2zm0 0z" stroke="#000" stroke-opacity="0" stroke-width=".14" fill="#843511"/><path d="M123.6 206.34l-16.36.7 16.36.57v-1.26zm0 0z" stroke="#000" stroke-opacity="0" stroke-width=".14" fill="#843511"/><path d="M123.6 207.6l16.36-.56-16.36-.7v1.27zm0 0z" stroke="#000" stroke-opacity="0" stroke-width=".14" fill="#843511"/><path d="M124.03 207.46l11.14-12.54-12 11.56.86.98zm0 0z" stroke="#000" stroke-opacity="0" stroke-width=".14" fill="#843511"/><path d="M124.03 206.48l-12-11.56 11.13 12.54.87-.98zm0 0z" stroke="#000" stroke-opacity="0" stroke-width=".14" fill="#843511"/><path d="M124.12 207.18l5.74-15.92-6.87 15.5 1.12.42zm0 0z" stroke="#000" stroke-opacity="0" stroke-width=".14" fill="#843511"/><path d="M123.86 206.34l-15.4-5.92 14.88 7.2.52-1.28zm0 0z" stroke="#000" stroke-opacity="0" stroke-width=".14" fill="#843511"/><path d="M123.34 207.6l15.4 5.92-14.88-7.18-.52 1.27zm0 0z" stroke="#000" stroke-opacity="0" stroke-width=".14" fill="#843511"/><path d="M123.34 206.34l-14.9 7.18 15.42-5.9-.52-1.28zm0 0zM123.86 207.6l14.88-7.18-15.4 5.92.52 1.27zm0 0z" stroke="#000" stroke-opacity="0" stroke-width=".14" fill="#843511"/><path d="M124.12 206.76l-6.8-15.5 5.67 15.92 1.12-.42zm0 0zM125.42 198.16c1.13-3.1 0-5.2 1.4-7.9-1.66 2-.53 4.38-1.92 7.62l.52.28zm0 0zM115.07 205.07c-2.96-1.13-4.96 0-7.5-1.55 1.93 1.83 4.2.56 7.24 2.1l.27-.55zm0 0zM132.12 209c2.96 1.14 4.96-.13 7.5 1.42-1.93-1.7-4.2-.56-7.24-2.1l-.26.7zm0 0zM131 202.1c2.78-1.4 3.4-3.65 6.26-4.5-2.53.14-3.4 2.68-6.53 3.8l.26.7zm0 0zM118.9 199.3c-1.3-2.97-3.57-3.53-4.35-6.5.17 2.55 2.6 3.4 3.74 6.77l.6-.28zm0 0zM128.56 199.57c2.17-2.4 1.82-4.8 4.17-6.76-2.26 1.28-2.1 3.96-4.6 6.2l.43.57zm0 0zM116.46 201.83c-2.35-2.26-4.6-1.97-6.44-4.37 1.13 2.4 3.66 2.1 5.92 4.8l.52-.43zm0 0zM114.98 208.6c-3.13.13-4.52 1.96-7.4 1.68 2.35.85 4-1.27 7.4-.98v-.7zm0 0zM132.2 205.35c3.14 0 4.54-1.97 7.4-1.55-2.34-.84-4.08 1.13-7.4 1v.55zm0 0zM122.12 198.02c-.18-3.24-2-4.65-1.66-7.75-.78 2.54 1.13 4.23.96 7.75h.7zm0 0z" stroke="#000" stroke-opacity="0" stroke-width=".14" fill="#843511"/><path d="M132.9 207.04c0-5.35-4.17-9.72-9.3-9.72-5.14 0-9.4 4.37-9.4 9.72 0 5.36 4.6 9.44 9.74 9.44 5.23 0 8.97-4.08 8.97-9.44z" stroke="#843511" stroke-width=".2" fill="#fcbf49"/><path d="M129.95 204.8c-1.74-1.7-4-2-5.22-.72-.26.43-.6.85-.6 1.27-.2 1 .16 2.1.77 3.1-.1 0-.17 0-.26.14-.6-1.28-.87-2.54-.7-3.8l.27-.86c1.75-1.55 4.1-1.7 5.75.85z" stroke="#000" stroke-opacity="0" stroke-width=".14" fill="#843511"/><path d="M127.16 204.22c-1.04 0-1.2.3-1.74.7-.43.43-.6.3-.7.43-.08 0 0 .28.1.14.17 0 .52-.15.95-.57.44-.42.87-.42 1.4-.42 1.4 0 2.17 1.13 2.34 1.13.2-.14-.77-1.4-2.34-1.4z" stroke="#000" stroke-opacity="0" stroke-width=".14" fill="#843511"/><path d="M129 205.63c-1.05-1.12-2.97-1.27-3.66 0h.26c.78-1.27 2.7-.7 2.78-.14v.13h.6zm0 0z" stroke="#000" stroke-opacity="0" stroke-width=".14" fill="#843511"/><path d="M127.7 205.5c0-.43-.28-.7-.7-.7-.36 0-.7.27-.7.7 0 .4.34.84.7.84.42 0 .7-.43.7-.85z" stroke="#000" stroke-opacity="0" stroke-width=".14" fill="#843511"/><path d="M125.34 205.63c.7.85 2.43.85 3.65 0l-.62-.14c-.78.98-2 .84-2.78.13v-.14l-.26.13zm0 0z" stroke="#000" stroke-opacity="0" stroke-width=".14" fill="#843511"/><path d="M129.08 206.06c-1.4.98-2.7.98-3.48.42-.8-.42-.8-.57-.6-.57.16 0 .34.16.95.44.6.28 1.56.28 3.13-.28zM125.25 208.45c.17 0 .26.28.26.42 0 .3-.16.57-.42.57-.27 0-.44-.28-.44-.57-.1.3-.43.7-1.04.7h-.18l.1.3h.08c.17 0 .6 0 .95-.3.1.15.26.3.53.3.34 0 .7-.3.7-.7 0-.3-.27-.72-.53-.72zm0 0zM117.07 204.8c1.83-1.7 4.1-2 5.3-.72.27.43.53.85.62 1.27.07 1-.2 2.1-.8 3.1 0 0 .18 0 .26.14.6-1.28.88-2.54.6-3.8 0-.3-.16-.58-.16-.86-1.74-1.55-4.1-1.7-5.83.85z" stroke="#000" stroke-opacity="0" stroke-width=".14" fill="#843511"/><path d="M119.85 204.22c1.05 0 1.3.3 1.74.7.52.43.7.3.78.43.08 0 0 .28-.18.14-.08 0-.43-.15-.87-.57-.52-.42-.95-.42-1.48-.42-1.4 0-2.08 1.13-2.26 1.13-.18-.14.77-1.4 2.25-1.4z" stroke="#000" stroke-opacity="0" stroke-width=".14" fill="#843511"/><path d="M118.1 205.63c.97-1.12 2.9-1.27 3.67 0h-.35c-.78-1.27-2.6-.7-2.78-.14v.13h-.53zm0 0z" stroke="#000" stroke-opacity="0" stroke-width=".14" fill="#843511"/><path d="M119.33 205.5c0-.43.35-.7.7-.7.43 0 .7.27.7.7 0 .4-.27.84-.7.84-.35 0-.7-.43-.7-.85z" stroke="#000" stroke-opacity="0" stroke-width=".14" fill="#843511"/><path d="M121.77 205.63c-.78.85-2.52.85-3.66 0l.54-.14c.78.98 2 .84 2.78.13v-.14l.35.13zm0 0z" stroke="#000" stroke-opacity="0" stroke-width=".14" fill="#843511"/><path d="M118.03 206.06c1.3.98 2.6.98 3.4.42.77-.42.77-.57.7-.57-.2 0-.36.16-.97.44-.6.28-1.57.28-3.13-.28zM121.86 208.45c-.27 0-.35.28-.35.42 0 .3.27.57.53.57.17 0 .43-.28.43-.57.1.3.44.7 1.05.7h.1l-.1.3c-.16 0-.6 0-.95-.3-.17.15-.35.3-.6.3-.36 0-.7-.3-.7-.7 0-.3.26-.72.6-.72zm0 0z" stroke="#000" stroke-opacity="0" stroke-width=".14" fill="#843511"/><path d="M127.95 240c-2.87-.4-5.92-.7-9.3.16-13.4 5.63 25.13 4.93 9.3-.15z" stroke="#000" stroke-opacity="0" stroke-width=".14" fill="#d40000"/><path d="M122.38 239.87l.08 56.23c0 .84.6 1.55 1.3 1.55.7 0 1.23-.7 1.23-1.55l-.1-56.23h-2.52zm0 0z" stroke="#000" stroke-opacity="0" stroke-width=".14" fill="#c87137"/><path d="M122.38 239.87l.08 56.23c0 .84.6 1.55 1.3 1.55.7 0 1.23-.7 1.23-1.55l-.1-56.23m-2.52 0z" stroke="#ce9548" stroke-width=".57" fill-opacity="0"/><path d="M124.2 282.3v14.22" stroke="#ffbf00" stroke-width=".7" fill-opacity="0"/><path d="M124.2 240v20.16" stroke="#ffbf00" stroke-width=".83" fill-opacity="0"/><path d="M122.73 239.87l.08 2.54s.88-.7 1.75 0l.18-2.53h-2zm0 0z" stroke="#000" stroke-opacity="0" stroke-width=".14" fill="#8a5b29"/><path d="M117.24 229.16c.1.43-.08.85.53 1.13 1.2.13 1.4-.15 2.08-.3-.26.43-.87 1.7-1.56 2.97-.88 1.4-1.06 2.68-.45 2.4 4.44 1.12 8.97.28 13.4.42-1.48-6.35-4-14.8-10.7-11-1.4.98-2.96 1.83-3.3 4.36z" stroke="#000" stroke-opacity="0" stroke-width=".14" fill="#f82323"/><path d="M117.77 230.15c.52.42 1.3.42 2 0 1.48-1.83 2.96-2.54 4.17-2.68-1.13-.14-2.35-.7-4.1 1.7-.68 0-1.38.42-2.07.98zM119.94 232.97c-2.1 1.27 2.44-1 6.44-.42-.96-1.13-2.1-2.12-6.44.42z" stroke="#000" stroke-opacity="0" stroke-width=".14" fill="#d40000"/><path d="M117.5 229.02l.1 1.13c-.18 1.97-1.75 2.82-2.88 1.97-.87-1.7 1.57-2.96 2.78-3.1z" stroke="#000" stroke-opacity="0" stroke-width=".14" fill="#f82323"/><path d="M115.76 242.4l-.17-5.5c.43-.97 1.3-1.54 2.17-1.68 4-.84 8.26-.7 12.6.14.97.3 1.75.7 2 1.7-.25 1.4.45 4.65-.68 5.63v-.3c-4.62-3.37-13.33-2.4-15.94 0z" stroke="#000" stroke-opacity="0" stroke-width=".14" fill="#ff2a2a"/><path d="M124.2 260.02v12.26" stroke="#ffbf00" stroke-width=".8" fill-opacity="0"/><path d="M115.07 281.58c.52-.42.87-.84 1.13-1.27h2c-.35.72-.87 1.28-1.57 1.7-.7.3-1.13.15-1.56-.42z" stroke="#000" stroke-opacity="0" stroke-width=".14" fill="#e68a5d"/><path d="M114.98 281.72l.1-.14c.42-.42.77-.84 1.03-1.27h.1l2-.13.1.14c-.36.72-.88 1.42-1.67 1.85-.7.28-1.2.14-1.65-.43zm1.4.3l.17-.16.52-.28c.26-.28.52-.56.7-.84l.26-.28h-1.74l-.45.56-.6.56h-.1c.35.43.7.57 1.22.43z" stroke="#000" stroke-opacity="0" stroke-width=".14" fill="#7f4100"/><path d="M96 279.05h.1c6.7-1.13 14.36-2.82 21.14-4.8.96-.7 2.1-1.12 3.3-1.54 1.66 0 3.23.3 4.7.43l6.88 8.17-.6.85.26.28-.87.56-.86-.43c-.18.84-.8 1-1.57.84-.6.58-1.22.86-1.92.3l-1.13.56-2.26-.7c-2.26-.85-4.35-1.84-6.44-2.96l-16.97 6.2-.52-.85c-1.4-2.4-2.35-4.37-3.22-6.9z" stroke="#000" stroke-opacity="0" stroke-width=".14" fill="#f1bd89"/><path d="M100 286.8c6.45-2.4 9.85-4.23 16.72-6.34h.1c1.55.84 3.03 1.7 4.7 2.4l1.64.7 2.26.7 1.13-.56h.1c.6.42 1.2.14 1.73-.43h.1c.77.14 1.3 0 1.47-.7l.1-.14.86.42 1.05-1.55-6.8-8.03-2.25-.28c-.35 0-.7-.15-1.13-.15l-1.22-.14-.87.43c-.87.28-1.65.7-2.35 1.27h-.1c-6.95 1.97-14.43 3.52-21.3 4.65l-.18-.3c5.92-.97 12.18-2.1 18.1-3.65l3.3-.84.8-.57c.77-.43 1.64-.85 2.5-1.14h.1c1.65.15 3.22.3 4.7.57h.1l6.86 8.17v.14l-.34 1-.87.7h-.1l-.78-.43-.08.15c-.18.56-.6.7-1.05.7l-.44-.14-.53.44c-.34.28-.78.28-1.3.14l-.18-.14-1.13.56-2.35-.7c-1.65-.7-3.3-1.4-4.78-2.26l-1.58-.7-2.87.84c-5.92 2.12-8.1 3.38-13.75 5.64l-.1-.42z" stroke="#000" stroke-opacity="0" stroke-width=".14" fill="#7f4100"/><path d="M98.53 284.82l16.63-4.93h1.47l8.53 3.66c.18 0 .44-.15.6-.43.2.14.36.28.45.43l.18.14-.96.56-2.26-.7-1.65-.7c-1.65-.7-3.13-1.56-4.7-2.4h-.08c-2.78.84-5.48 1.83-8.18 2.95l-8.53 3.54-1.47-2.12zM125.34 282.57c.6-.14 1.3-.42 1.74-1 .34.44.78 1 1.04 1.42l.18.4c-.1 0-.18.16-.35.3-.8.84-1.92-.43-2.6-1.13z" stroke="#000" stroke-opacity="0" stroke-width=".14" fill="#e68a5d"/><path d="M128.73 283.27h-.17c-.6-.28-1.22-1.4-1.57-1.83.5 0 1.03-.28 1.56-.84.43.28.87 1.12 1.3 1.7l.1.27c-.1.7-.62.84-1.23.7z" stroke="#000" stroke-opacity="0" stroke-width=".14" fill="#e68a5d"/><path d="M130.9 282.85l-.7-.28c-.86-.85-1.3-1.55-2.08-2.4.6-.14 1.13-.56 1.65-1.12.6 1.12 2 1.83 1.92 3.38h-.1l-.7.42z" stroke="#000" stroke-opacity="0" stroke-width=".14" fill="#e68a5d"/><path d="M126.47 283.84l-3.13-2.82.17-.14 3.14 2.82-.17.14zM124.12 279.05l.1-.14c1.03 1.27 3.03 2.12 4.34 4.37l-.18.14c-1.4-2.24-3.22-2.94-4.26-4.35zM126.12 278.34l.17-.14c1.04 1.55 2.7 2.1 3.82 4.23l-.17.14c-1.22-2.26-2.7-2.68-3.83-4.23z" stroke="#000" stroke-opacity="0" stroke-width=".14" fill="#7f4100"/><path d="M131.78 282c-.7-1.26-1.57-2.53-2.88-3.94-.95-.56-1.74-1.13-2.26-1.83-.6-.28-1.22-.7-1.56-1-.6 0-.96-.13-1.4-.4-.78.55-1.56.98-2.35 1.26-.95-.15-1.65-.3-1.4-1 .62-.56 1.23-1.27 1.66-2.25.17-.3.52-.3 1.13-.57h3.13c1.13.57 4.26 2.26 6.26 3.95 6 1.13 10.97 2.82 17.23 4.23l.8.14-.7 1.83c-.88 2.25-2 3.8-3.14 5.5-5.56-2.54-9.65-4.52-14.52-5.92z" stroke="#000" stroke-opacity="0" stroke-width=".14" fill="#f1bd89"/><path d="M133 282.3l-1.22-.3-.53-.98-.43-.7 17.32 4.93-.8.98c0 .57-.68 1-.86 1.7l-.35-.3c-4.52-1.96-9.05-4.07-13.14-5.34zM130.04 279.2h-.1c-.25-.44-.6-.72-.95-1.14-1.05-.56-1.75-1.27-2.27-1.83v-.14c-.7-.3-1.22-.58-1.57-1h-.08c-.6 0-.96-.14-1.3-.28h-.1c-.43.28-.78.42-1.22.7l-.78.3-.1-.16c.62-.56 1.67-.98 1.5-1.83.6.28 2 .85 2.7.57.34 0 .5.84.86.84 0 1.27 3.05 2.82 4.87 2.26l-1.46 1.7z" stroke="#000" stroke-opacity="0" stroke-width=".14" fill="#e68a5d"/><path d="M116.63 282l3.22-1.54c.6.14 1.05.42 1.05 1.26-.7.57-1.48 1.27-2.53 1.7-1.2-.15-1.65-.7-1.74-1.4z" stroke="#000" stroke-opacity="0" stroke-width=".14" fill="#f1bd89"/><path d="M116.55 282l.08-.14 3.14-1.55h.08c.6.3 1.14.58 1.14 1.42h-.1c-.6.7-1.4 1.27-2.44 1.7h-.1c-1.3 0-1.73-.7-1.8-1.4zm1.82 1.27l.7-.28c.44-.3.87-.57 1.22-.85l.42-.43v-.28c0-.42-.26-.56-.52-.7l-.35-.14-3.04 1.4v.15c.1.56.36.84 1.14 1.12h.43z" stroke="#000" stroke-opacity="0" stroke-width=".14" fill="#7f4100"/><path d="M118.37 283.27h-.43c-.78-.28-1.04-.56-1.13-1.12V282l1.05-.56.18.28c.26.57.78 1.13 1.56.85l-.53.42-.7.27z" stroke="#000" stroke-opacity="0" stroke-width=".14" fill="#e68a5d"/><path d="M118.9 283.13l2.26-2.1c.78-.15 1.22.27 1.48.7l-1.74 2.53c-1.05 0-1.57-.42-2-1.13z" stroke="#000" stroke-opacity="0" stroke-width=".14" fill="#f1bd89"/><path d="M118.8 283.13l.1-.14 2.17-1.98.1-.14c.86-.14 1.3.42 1.56.84v.14l-1.74 2.4-.1.14c-1.13 0-1.65-.42-2.1-1.27zm2 1l1.66-2.4-.17-.3c-.18-.13-.44-.4-.8-.27h-.25l-2.18 1.97.26.43c.26.42.6.56 1.13.56h.35z" stroke="#000" stroke-opacity="0" stroke-width=".14" fill="#7f4100"/><path d="M120.8 284.12h-.34c-.52 0-.87-.14-1.13-.56l-.26-.43.6-.56.18.28c.27.28.6.56 1.14.7l.25-.14-.44.72z" stroke="#000" stroke-opacity="0" stroke-width=".14" fill="#e68a5d"/><path d="M120.9 284.26l1.74-2.4c.35 0 .7.3.96.7-.1.7-.6 1.56-1.4 2.4-.7-.14-1.2-.28-1.3-.7z" stroke="#000" stroke-opacity="0" stroke-width=".14" fill="#f1bd89"/><path d="M120.8 284.4v-.14l1.75-2.4.1-.14c.34 0 .77.3 1.03.7l.1.15c-.18.84-.7 1.7-1.5 2.4h-.08c-.7 0-1.3-.15-1.4-.57zm1.4.42l.44-.56c.35-.42.6-.7.78-1.13l.1-.56-.18-.28c-.18-.15-.35-.15-.44-.3h-.26l-1.65 2.4.07.14c.1 0 .35.14.6.14l.53.14z" stroke="#000" stroke-opacity="0" stroke-width=".14" fill="#7f4100"/><path d="M122.2 284.82l-.52-.14c-.26 0-.52-.14-.6-.14l-.1-.14.6-.84c.28.28.62.42.88.56h.35l-.16.14-.44.56z" stroke="#000" stroke-opacity="0" stroke-width=".14" fill="#e68a5d"/><path d="M131.6 282.15c-.52-1-1.13-1.98-1.9-2.96l-.88-1-.7-.42c-.43-.28-.78-.7-1.13-1l-.36-.55-.52-.14c-.26-.15-.6-.44-.78-.58l-.35-.14-.36-.14h-.35l-.62-.28-1.13.7c-.35.15-.78.43-1.22.57-.87-.14-1.74-.28-1.48-1.13h.1c.5-.56 1.04-1.27 1.64-2.25.17-.3.52-.43 1.13-.57h3.13c1.04.28 3.57 1.83 5.57 3.24l.78.57 2.97.7c4.35.98 8.8 2.25 13.3 3.37l1.84.43-.16.14-.87-.28c-5.92-1.27-11.5-2.96-17.15-4.1v-.13c-1.9-1.4-4.78-3.1-6.1-3.67l-.25-.14h-3.03l-.35.14c-.26 0-.44.15-.52.3l-.18.13-.35.55c-.26.56-.52.85-.87 1.27l-.34.42-.1.14c0 .28.36.43.97.57h.33l1.13-.43c.44-.28.8-.42 1.22-.7h.1c.34.14.7.28 1.3.28h.08c.35.42.87.7 1.57 1v.13c.52.56 1.22 1.27 2.26 1.83.95 1 1.64 1.97 2.25 2.96l.53 1 1.2.27c4.1 1.26 8.98 3.5 13.5 5.48l-.1.14c-4.77-1.97-9.2-4.22-14.78-5.77z" stroke="#000" stroke-opacity="0" stroke-width=".14" fill="#7f4100"/><path d="M120.9 274.26l1.04.14c-.26.7-.95 1.4-1.82.84 1.2-1.4.52-.7.78-.98z" stroke="#000" stroke-opacity="0" stroke-width=".14" fill="#ffe6d5"/><path d="M119.07 281.02c.6.84.7.84.7.84.26-.14.52-.28.52-.56-.1-.14 0-.28-.53-.56l-.7.28zM120.9 281.72c.6.57.78.57.87.57.17-.15.26-.3.35-.3.08-.14.08-.42 0-.56-.18-.14-.53-.28-.7-.14-.17 0-.35.14-.52.42z" stroke="#000" stroke-opacity="0" stroke-width=".14" fill="#fae4d4"/><path d="M122.38 282.57c.43.42.7.42.7.42.08-.15.26-.3.26-.43-.27-.42-.53-.28-.7-.28l-.26.27z" stroke="#000" stroke-opacity="0" stroke-width=".14" fill="#ffe6d5"/><path d="M130.47 282.43c.1-.57.78-.57.78-.57.18.3.18.3.18.43-.1.13-.18.27-.44.4-.18-.13-.27 0-.53-.27z" stroke="#000" stroke-opacity="0" stroke-width=".14" fill="#fca"/><path d="M154.57 260.02c0 22.97-13.83 41.43-30.97 41.43-17.23 0-31.07-18.46-31.07-41.43 0-22.82 13.84-41.28 31.07-41.28 17.14 0 30.97 18.46 30.97 41.28z" stroke="#f2ce67" stroke-width="2.34" fill-opacity="0"/><path d="M127.5 212.26c-1.12 2.25 1.23.42.7 1.7.44-.72 3.5.4 3.5-.3l-4.2-1.4z" stroke="#0b572f" stroke-width="1.16" fill="#66a72e"/><path d="M131 211.7c-6.97-2.97-9.93.56-18.02 1.82v.57c.43-.15 9.92-.3 9.57 0l7.75 1.68c-.1-1.13-.96-2.12-2.8-2.96.97-.42 2.2-.85 3.5-1.13z" stroke="#0b572f" stroke-width="1.16" fill="#66a72e"/><path d="M113.15 213.95v-.3l1.14-.13h.07c1.57 0 3.13 0 4.7-.14 3.48-1.12 7.05-1.55 10.7-1.7h.6l-1.3.43c-.6.16-1.12.44-1.65.58-.08 0-.08.14-.08.14v.14l-.8.14-3.2.42c2.52.14 4.78.57 6.52 1.7l.18.28v.14l-7.3-1.7h-.1c-.6-.28-7.22-.13-9.23 0h-.25z" stroke="#000" stroke-opacity="0" stroke-width=".14" fill="#007f01"/><path d="M139.1 218.88c-3.58-1.13-7.5-1.55-9.4-5.78 4.6-2.25 7.2 1 9.4 5.78zm0 0z" stroke="#000" stroke-opacity="0" stroke-width=".14" fill="#66a72e"/><path d="M139.1 218.88c-3.58-1.13-7.5-1.55-9.4-5.78 4.6-2.25 7.2 1 9.4 5.78m0 0z" stroke="#0b572f" stroke-width=".86" fill-opacity="0"/><path d="M130.38 214.1l-.52-.86h.18c2.26-.14 5.13 1.83 8.7 5.36l-2.35-.7c-2.36-.57-4.62-1.42-6.02-3.8z" stroke="#000" stroke-opacity="0" stroke-width=".14" fill="#007f01"/><path d="M160.75 270.3c-2.1-3.5-4.7-6.6-4-11.54 4.35 1.4 4.7 6.05 4 11.55zm0 0z" stroke="#000" stroke-opacity="0" stroke-width=".14" fill="#66a72e"/><path d="M160.75 270.3c-2.1-3.5-4.7-6.6-4-11.54 4.35 1.4 4.7 6.05 4 11.55m0 0z" stroke="#0b572f" stroke-width=".89" fill-opacity="0"/><path d="M156.75 260.02l.1-.98h.07l.6 1.55c1.06 2.66 1.93 5.34 2.7 8.16l.36 1.13-1.4-2.27c-1.4-2.4-2.52-4.65-2.43-7.6z" stroke="#000" stroke-opacity="0" stroke-width=".14" fill="#007f01"/><path d="M128.64 216.62c-3.9 0-7.92.85-11.14-2.4 3.92-3.37 7.58-1.26 11.06 2.26l.08.14zm0 0z" stroke="#000" stroke-opacity="0" stroke-width=".14" fill="#66a72e"/><path d="M128.64 216.62c-3.9 0-7.92.85-11.14-2.4 3.92-3.37 7.58-1.26 11.06 2.26m.08.14z" stroke="#0b572f" stroke-width=".88" fill-opacity="0"/><path d="M118.46 214.93l-.7-.7h.18l1.48.28c2.7.43 5.22 1 7.83 1.7l.96.14-2.52.14c-2.52.14-5.04 0-7.22-1.55z" stroke="#000" stroke-opacity="0" stroke-width=".14" fill="#007f01"/><path d="M90.7 260.02c-.6 5.08-.26 10.43-5.04 14.1-3.66-5.64-.26-10 5.04-14.1zm0 0z" stroke="#000" stroke-opacity="0" stroke-width=".14" fill="#66a72e"/><path d="M90.7 260.02c-.6 5.08-.26 10.43-5.04 14.1-3.66-5.64-.26-10 5.04-14.1m0 0z" stroke="#0b572f" stroke-width="1.15" fill-opacity="0"/><path d="M86.8 273l-.97.7-.17-.15.6-1.97c1.05-3.24 2.35-6.48 3.66-9.72l.52-1.27-.35 3.37c-.27 3.24-.88 6.48-3.3 9.02z" stroke="#000" stroke-opacity="0" stroke-width=".14" fill="#007f01"/><path d="M122.3 210.14c-7.5-.56-7.93 3.38-15.32 7.2l.17.55c.43-.3 9.3-3.53 9.14-3.1l7.82-.85c-.44-1-1.48-1.7-3.57-1.84.78-.83.7-1.25 1.74-1.96z" stroke="#0b572f" stroke-width="1.19" fill="#66a72e"/><path d="M107.24 217.75l-.1-.28 1.14-.56c1.48-.56 2.96-1.12 4.44-1.54 1.74-2.4 4.1-4.1 9.3-5.08l-.5.43c-.53.43-.7 1-1.06 1.4h-.08l-.6.44c-.97.42-1.93.98-2.97 1.4 2.45-.7 4.7-.98 6.7-.42l.27.14.1.15-7.5.85h-.08c-.7-.14-6.9 2.1-8.72 2.96l-.34.15z" stroke="#000" stroke-opacity="0" stroke-width=".14" fill="#007f01"/><path d="M119.6 216.06c-4.27 1-8.53 2.4-11.5 1.13 4.53-3.25 8.1-2.7 11.5-1.14z" stroke="#0b572f" stroke-width=".75" fill="#66a72e"/><path d="M108.98 217.33l-.7-.28h.17l1.57-.3c2.7-.27 5.4-.4 8-.7h1.05l-2.7.7c-2.7.58-5.3 1.14-7.4.58z" stroke="#000" stroke-opacity="0" stroke-width=".14" fill="#007f01"/><path d="M102.8 221c3.04-4.66 7.05-8.6 12.44-11.84-2.1 8.17-5.4 5.35-10.1 11.27l-2.34.56z" stroke="#0b572f" stroke-width="1.26" fill="#66a72e"/><path d="M104.2 221.4l-.44-.27 11.13-11.55-.27.84c-1.9 6.06-3.13 3.24-9.66 10l-.78 1z" stroke="#000" stroke-opacity="0" stroke-width=".14" fill="#007f01"/><path d="M102.9 214.37c-1.67 5.35-3.06 11.13-6.28 14.1-.17-6.63 2.7-10.58 6.27-14.1z" stroke="#0b572f" stroke-width="1.06" fill="#66a72e"/><path d="M96.7 228.18v-.28l.8-1.84c1.47-3.38 2.95-6.62 4.52-9.86l.52-1-1.05 3.1c-1.14 3.82-2.36 7.2-4.44 9.46l-.35.42z" stroke="#000" stroke-opacity="0" stroke-width=".14" fill="#007f01"/><path d="M108.2 214.1c-2.8 4.36-5.3 9.15-9.14 10.4 1.13-6.47 4.78-9 9.13-10.4z" stroke="#0b572f" stroke-width=".92" fill="#66a72e"/><path d="M99.23 224.37v-.28l1.22-1.56c2.17-2.53 4.26-4.8 6.53-7.18l.78-.85-1.74 2.83c-1.92 2.96-3.83 5.63-6.35 6.76l-.44.27z" stroke="#000" stroke-opacity="0" stroke-width=".14" fill="#007f01"/><path d="M110.37 220.3c-4.6 2.95-9.05 6.47-13.23 6.2 3.92-5.8 8.53-6.64 13.23-6.2z" stroke="#0b572f" stroke-width=".96" fill="#66a72e"/><path d="M98.27 226.35h-.87l.1-.3 1.82-.83c3.13-1.55 6.18-2.96 9.3-4.23l1.14-.57-2.87 1.97c-2.97 1.97-5.84 3.66-8.63 3.95z" stroke="#000" stroke-opacity="0" stroke-width=".14" fill="#007f01"/><path d="M98.2 222.54c-1.5 4.65-2.62 9.58-5.5 12.26-.17-5.78 2.27-9.3 5.5-12.26z" stroke="#0b572f" stroke-width=".91" fill="#66a72e"/><path d="M92.88 234.38v-.14l.6-1.55c1.3-2.97 2.62-5.8 3.92-8.6l.35-.85-.87 2.8c-.87 2.83-1.83 5.65-3.3 7.48l-.7.85z" stroke="#000" stroke-opacity="0" stroke-width=".14" fill="#007f01"/><path d="M94.27 222.68c0 4.37.6 9.02-1.65 11.56-2.26-5.22-.8-8.6 1.65-11.56z" stroke="#0b572f" stroke-width=".79" fill="#66a72e"/><path d="M92.7 234.1l-.08-.3.17-1.54c.25-2.8.7-5.5 1.12-8.17l.18-1 .08 2.82c.1 2.96 0 5.78-1.2 7.75l-.28.43z" stroke="#000" stroke-opacity="0" stroke-width=".14" fill="#007f01"/><path d="M103.5 225.22c-3.5 3.94-6.7 8.6-10.88 9.3 2.17-6.48 6.26-8.46 10.87-9.3z" stroke="#0b572f" stroke-width=".95" fill="#66a72e"/><path d="M92.88 234.38l.1-.28 1.38-1.27c2.52-2.26 5.05-4.37 7.66-6.48l.95-.85-2.17 2.68c-2.35 2.82-4.7 5.2-7.4 6.06l-.52.14z" stroke="#000" stroke-opacity="0" stroke-width=".14" fill="#007f01"/><path d="M89.92 230.86c-.35 3.38 3.13 5.77-1.9 9.15-1.06-3.23-1.23-6.75 1.9-9.14z" stroke="#0b572f" stroke-width="1.19" fill="#66a72e"/><path d="M89.4 231.56l.08-.14.27-.14v.28c.08 2.82 2.43 4.93-.96 7.75l-.36.3.1-.3c.77-2.4.34-4.92.77-7.18l.1-.56z" stroke="#000" stroke-opacity="0" stroke-width=".14" fill="#007f01"/><path d="M85.92 251.43c.6-2.82 1.22-5.64.87-8.32-2.1-3.8-.62-5.48-1.06-9 1.48 1.12 2.8 2.67 3.14 4.36.52-2.25 1.82-4.5 2.95-6.05.53 1.7.96 3.4.87 5.22 1.57-1.4 3.05-1.55 4.62-1.7-4.7 3.53-1.4 6.07-8.62 11.28l-1.65 5.07-1.13-.84z" stroke="#0b572f" stroke-width="1.19" fill="#66a72e"/><path d="M86.8 251.85l1.12-4.93c3.74-2.82 4.87-8.74 8.18-10.57l.35-.14h.43l-.43.3c-3.66 3.23-1.05 5.63-7.75 10.56l-.1.14-1.55 4.65h-.26zm-.8-17.33l.7.7c.96 1 1.74 2.12 2 3.24 0 .15.18.3.26.15.52 1.84.44 4.1-.6 7.33-.44-3.52-.88-6.9-1.92-10.14L86 234.5zm5.75-1.7v-.13l.26.83.18.85c.18.84.26 1.7.35 2.53v.86c.1 2.82-.78 5.07-3.57 6.48 1.13-2.82 1.92-5.78 2.35-8.73l.45-2.67z" stroke="#000" stroke-opacity="0" stroke-width=".14" fill="#007f01"/><path d="M80.96 244.52c2.7 7.47 6.44 14.94 4.87 21.28-6.53-7.2-6.6-14.23-4.87-21.28z" stroke="#0b572f" stroke-width="1.19" fill="#66a72e"/><path d="M85.66 265.52l-.87-1.13-.36-.43-.52-1.7c-1.57-5.2-2.53-10.14-2.88-15.2l-.08-1.7v-.28l2 5.06c1.9 5.07 3.57 10 2.87 14.5l-.17.86z" stroke="#000" stroke-opacity="0" stroke-width=".14" fill="#007f01"/><path d="M92.44 247.48c-.34 3.95-3.9 8.32-8.1 11.84-1.64-3.52 4.97-8.17 8.1-11.84z" stroke="#0b572f" stroke-width="1.19" fill="#66a72e"/><path d="M84.44 259.04l-.1-.28 7.93-10.57c-.7 3.23-3.3 6.6-6.53 9.57l-1.3 1.27z" stroke="#000" stroke-opacity="0" stroke-width=".14" fill="#007f01"/><path d="M85.48 243.96c1.05 6.2 2.87 12.68 0 17.05-4.7-6.9-3.13-12.25 0-17.04z" stroke="#0b572f" stroke-width="1.19" fill="#66a72e"/><path d="M85.48 260.6l-.17-.15-.08-2.4c-.1-4.1 0-8.03.18-11.98l.08-1.55.7 4.1c.7 4.22 1.22 8.3-.35 11.4l-.35.57z" stroke="#000" stroke-opacity="0" stroke-width=".14" fill="#007f01"/><path d="M89.66 247.34c-.96 6.2-1.65 12.68-4.35 16.5-.95-7.34 1.3-12.27 4.36-16.5z" stroke="#0b572f" stroke-width="1.19" fill="#66a72e"/><path d="M85.4 263.4v-.28l.52-2.1c.95-3.96 2-7.76 3.13-11.56l.26-1-.5 3.53c-.7 4.22-1.4 8.16-3.23 10.98l-.17.43z" stroke="#000" stroke-opacity="0" stroke-width=".14" fill="#007f01"/><path d="M80.35 260.16c4.17 3.53 6.26 10.7 7.05 17.76-5.3-1-5.4-11.56-7.05-17.76z" stroke="#0b572f" stroke-width="1.6" fill="#66a72e"/><path d="M87.14 277.5h-.44L80.87 261c3.22 3.25 5.05 8.6 5.92 14.24l.34 2.26z" stroke="#000" stroke-opacity="0" stroke-width=".14" fill="#007f01"/><path d="M87.66 281.16c-1.48-4.93-3.05-3.8-.7-8.6.1-3.24 3.13-4.93-5.22-15.2 2.6 6.47 1.74 12.95 3.66 21.26.17.85.26 1.98 0 2.82l2.26-.28z" stroke="#0b572f" stroke-width="1.19" fill="#66a72e"/><path d="M82.78 258.9l.87 1.26c3.05 4.37 4.7 6.2 3.14 12.55l-4.02-13.8z" stroke="#000" stroke-opacity="0" stroke-width=".14" fill="#007f01"/><path d="M83.65 278.34c4 3.24 8.88 6.06 8.88 10.43-7.22-1.27-8.8-5.5-8.88-10.43z" stroke="#0b572f" stroke-width="1.19" fill="#66a72e"/><path d="M92.36 288.63l-.18-.14-1.3-1.28c-2.18-2.54-4.27-4.93-6.18-7.47l-.78-1 2.7 2.13c2.78 2.1 5.3 4.23 5.74 7.18v.57z" stroke="#000" stroke-opacity="0" stroke-width=".14" fill="#007f01"/><path d="M91.57 276.8c2.18 4.92 2.44 10.84-1.04 13.8-3.66-6.2-2.8-10.57 1.04-13.8zm0 0z" stroke="#000" stroke-opacity="0" stroke-width=".14" fill="#66a72e"/><path d="M91.57 276.8c2.18 4.92 2.44 10.84-1.04 13.8-3.66-6.2-2.8-10.57 1.04-13.8m0 0z" stroke="#0b572f" stroke-width="1.19" fill-opacity="0"/><path d="M90.62 290.32l-.1-.14.18-1.97.8-11.27c1.8 4.37 2.6 9.16-.36 12.97l-.52.42z" stroke="#000" stroke-opacity="0" stroke-width=".14" fill="#05933f"/><path d="M98.27 295.67c-4.52-2.67-5.3-6.34-6.96-11.4-.77-2.55-3.2-6.2-5.64-6.77.52 2.1 1.13 4.22 2.08 6.34-1.82-1.27-3.65-2.54-5.56-3.8 2.26 6.33 5.83 11.27 12.7 15.2.78.57 1.57 1.28 2.1 2.12l1.3-1.7z" stroke="#0b572f" stroke-width="1.19" fill="#66a72e"/><path d="M86 278.06l-.08-.28.6.28c2 1 3.92 4.1 4.62 6.2 1.48 4.5 2.26 7.9 5.57 10.43l.44.4-.26.7c-5.57-5.76-5.65-12.1-10.53-17.32l-.35-.42zm-3.48 2.54v-.14l2.35 1.7c.96.55 1.83 1.25 2.7 1.82h.27l.6 1.55c.7 1.7 1.65 3.38 2.7 5.07-2.7-3.8-4.6-6.62-8.44-9.86l-.18-.14z" stroke="#000" stroke-opacity="0" stroke-width=".14" fill="#007f01"/><path d="M89.48 293c4.97 1.83 10.62 3.1 12.2 7.32-7.4 1-10.45-2.53-12.2-7.32z" stroke="#0b572f" stroke-width="1.21" fill="#66a72e"/><path d="M89.92 293.42l3.3 1.13c3.4 1.12 6.53 2.4 7.93 5.07l.26.56h-.25l-1.74-.98c-2.95-1.55-5.74-3.4-8.44-5.08l-1.04-.7zm-.17-.14l-.1-.14.1.14z" stroke="#000" stroke-opacity="0" stroke-width=".14" fill="#007f01"/><path d="M98.7 290.04c2.88 4.22 6.62 8.3 5.32 12.54-6.53-3.24-6.7-7.75-5.3-12.54z" stroke="#0b572f" stroke-width="1.19" fill="#66a72e"/><path d="M103.93 302.44l-.17-.14-.87-1.7c-1.4-2.95-2.54-5.9-3.67-8.87l-.43-1.13 2 2.82c2 2.82 3.74 5.5 3.22 8.45l-.1.57z" stroke="#000" stroke-opacity="0" stroke-width=".14" fill="#007f01"/><path d="M110.02 306.24l-6.1-5.2-8.6-9.3c1.04 3.8 2.43 7.6 6 10.42-2.7-1.4-6-2.26-9.4-2.68 3.3 2.82 6.96 5.07 11.75 5.07l4.96 2.1 1.4-.4z" stroke="#0b572f" stroke-width="1.19" fill="#66a72e"/><path d="M95.66 292.43l8.18 8.6v.14l5.83 4.93-.26.14-.34-.14c-5.57-3.52-10-7.9-12.8-12.68l-.6-1zm-3.22 7.33l1.92.28c2.52.42 4.87 1.13 6.87 2.26h.18l.1-.14.95.7c-2.87-.14-6.35-1.4-9.57-2.96l-.44-.14z" stroke="#000" stroke-opacity="0" stroke-width=".14" fill="#007f01"/><path d="M137.26 318.92c-2.53-2.8-10.53-7.75-14.45-8.73.7-.58-6.17-.72-13.65-.72l-7.92-2.4-1.13-.56c4.1-1.83 8.53-1.7 12.88 0-2.87-2.8-5.57-5.63-4.87-7.75 3.5 1.7 7.75 3.8 10.36 7.33l4.27 3.52 4 .43c-3.83.14 8.8 2.96 13.14 4.36-3.4 2.27.43 2.83-2.6 4.52z" stroke="#0b572f" stroke-width="1.19" fill="#66a72e"/><path d="M122.73 309.76l-8.53-1.4c-3.05-1.55-7.22-1.55-11.23-1.7l-1.9.15-.8-.28c3.3-1.4 7.75-1.97 12.7.14.1.15.27 0 .18-.14v-.14l.53.43c.26 0 .52.3.78.43 1.13.7 2.87.84 4.52.84-2.95-2.67-6.7-4.08-8.87-6.48l-1.82-2.54v-.15l3.13 1.56c2.1 1.55 4.45 2.26 6.97 5.78l-.17-.14 4.44 3.66h.1zM137.43 318.92c-1.65-1.7-9.48-7.32-12.18-7.75-.96-.28-1.83-.42-2.7-.56h-.17l1.48.15c3.56.42 7.83 2.4 13.48 5.92l.1 2.25z" stroke="#000" stroke-opacity="0" stroke-width=".14" fill="#007f01"/><path d="M144.13 214.37c1.66 5.35 3.05 11.13 6.27 14.1.17-6.63-2.7-10.58-6.27-14.1z" stroke="#0b572f" stroke-width="1.06" fill="#66a72e"/><path d="M150.22 228.18l-.26-.42c-2.1-2.26-3.3-5.64-4.44-9.3l-1.04-3.25.52 1c1.57 3.24 3.05 6.48 4.53 9.86l.7 1.84v.28z" stroke="#000" stroke-opacity="0" stroke-width=".14" fill="#007f01"/><path d="M139.52 215.07c2.87 4.37 4.6 8.18 8.44 9.44-1.13-6.47-4.1-7.88-8.35-9.3l-.08-.13zm0 0z" stroke="#000" stroke-opacity="0" stroke-width=".14" fill="#66a72e"/><path d="M139.52 215.07c2.87 4.37 4.6 8.18 8.44 9.44-1.13-6.47-4.1-7.88-8.35-9.3m-.08-.13z" stroke="#0b572f" stroke-width=".92" fill-opacity="0"/><path d="M147.8 224.37l-.45-.28c-2.52-1.14-4.44-3.8-6.35-6.77l-1.22-2.12.26.16c4.18 3.1 5.92 5.2 6.53 7.18l1.22 1.55v.27z" stroke="#000" stroke-opacity="0" stroke-width=".14" fill="#007f01"/><path d="M136.65 220.3c4.6 2.95 9.05 6.47 13.23 6.2-3.92-5.8-8.53-6.64-13.23-6.2z" stroke="#0b572f" stroke-width=".96" fill="#66a72e"/><path d="M139.96 222.26l-2.7-1.83 1.13.56c3.12 1.26 6.17 2.67 9.3 4.22l1.83.84.08.3h-.5c-2.88-.15-6-2-9.14-4.1z" stroke="#000" stroke-opacity="0" stroke-width=".14" fill="#007f01"/><path d="M148.83 222.54c1.48 4.65 2.6 9.58 5.48 12.26.2-5.78-2.25-9.3-5.47-12.26z" stroke="#0b572f" stroke-width=".91" fill="#66a72e"/><path d="M154.14 234.38l-.7-.85c-1.48-1.83-2.43-4.65-3.3-7.47l-.87-2.8.34.83c1.32 2.8 2.63 5.63 3.93 8.6l.6 1.54v.14z" stroke="#000" stroke-opacity="0" stroke-width=".14" fill="#007f01"/><path d="M152.75 222.68c0 4.37-.6 9.02 1.65 11.56 2.26-5.22.78-8.6-1.65-11.56z" stroke="#0b572f" stroke-width=".79" fill="#66a72e"/><path d="M154.3 234.1l-.25-.43c-1.22-1.97-1.3-4.8-1.22-7.75l.1-2.8.17.97c.43 2.67.87 5.35 1.13 8.16l.17 1.55-.1.3z" stroke="#000" stroke-opacity="0" stroke-width=".14" fill="#007f01"/><path d="M143.52 225.22c3.48 3.94 6.7 8.6 10.88 9.3-2.17-6.48-6.26-8.46-10.88-9.3z" stroke="#0b572f" stroke-width=".95" fill="#66a72e"/><path d="M154.14 234.38l-.52-.14c-2.7-.85-5.05-3.24-7.4-6.06l-2.26-2.68 1.04.85c2.6 2.1 5.14 4.22 7.66 6.48l1.4 1.27.08.28z" stroke="#000" stroke-opacity="0" stroke-width=".14" fill="#007f01"/><path d="M157.1 230.86c.35 3.38-3.13 5.77 1.9 9.15 1.06-3.23 1.23-6.75-1.9-9.14z" stroke="#0b572f" stroke-width="1.19" fill="#66a72e"/><path d="M158.58 239.6l-.35-.3c-3.4-2.8-1.04-4.92-.96-7.74v-.28l.26.14.1.14.08.56c.44 2.26 0 4.8.8 7.2l.08.27z" stroke="#000" stroke-opacity="0" stroke-width=".14" fill="#007f01"/><path d="M161.1 251.43c-.6-2.82-1.22-5.64-.87-8.32 2.1-3.8.6-5.48 1.04-9-1.47 1.12-2.78 2.67-3.13 4.36-.52-2.25-1.83-4.5-2.96-6.05-.52 1.7-1.04 3.4-.87 5.22-1.55-1.4-3.03-1.55-4.6-1.7 4.7 3.53 1.4 6.07 8.62 11.28l1.65 5.07 1.13-.84z" stroke="#0b572f" stroke-width="1.19" fill="#66a72e"/><path d="M160.23 251.85h-.26l-1.57-4.65-.08-.14c-6.7-4.93-4.1-7.33-7.75-10.57l-.43-.3h.43l.35.15c3.3 1.83 4.44 7.75 8.18 10.57l1.13 4.93zm-2.17-13.24c.08.15.26 0 .26-.14.26-1.12 1.04-2.25 2-3.24l.7-.7-.44 1.27c-1.05 3.23-1.48 6.6-1.92 10.13-1.04-3.24-1.13-5.5-.6-7.32zm-3.57-.98v-.72c.07-.83.16-1.68.34-2.52l.17-.85.27-.84v.13l.44 2.68c.44 2.96 1.22 5.92 2.36 8.74-2.8-1.4-3.66-3.66-3.57-6.48v-.14z" stroke="#000" stroke-opacity="0" stroke-width=".14" fill="#007f01"/><path d="M166.06 244.52c-2.7 7.47-6.44 14.94-4.87 21.28 6.5-7.2 6.6-14.23 4.86-21.28z" stroke="#0b572f" stroke-width="1.19" fill="#66a72e"/><path d="M161.36 265.52l-.17-.85c-.7-4.5.95-9.44 2.86-14.5l1.9-5.08.1.27-.1 1.7c-.33 5.06-1.3 10-2.86 15.2l-.52 1.7-.35.42-.87 1.12z" stroke="#000" stroke-opacity="0" stroke-width=".14" fill="#007f01"/><path d="M154.5 247.48c.42 3.95 4 8.32 8.17 11.84 1.65-3.52-4.96-8.17-8.18-11.84z" stroke="#0b572f" stroke-width="1.19" fill="#66a72e"/><path d="M162.58 259.04l-1.3-1.27c-3.22-2.96-5.84-6.34-6.53-9.58l7.92 10.4-.1.44z" stroke="#000" stroke-opacity="0" stroke-width=".14" fill="#007f01"/><path d="M161.54 243.96c-1.05 6.2-2.88 12.68 0 17.05 4.7-6.9 3.13-12.25 0-17.04z" stroke="#0b572f" stroke-width="1.19" fill="#66a72e"/><path d="M161.54 260.6l-.35-.58c-1.58-3.1-1.06-7.18-.36-11.4l.7-4.1.08 1.55c.18 3.95.26 7.9.18 11.98l-.1 2.4-.16.14z" stroke="#000" stroke-opacity="0" stroke-width=".14" fill="#007f01"/><path d="M157.36 247.34c.96 6.2 1.65 12.68 4.35 16.5.97-7.34-1.3-12.27-4.34-16.5z" stroke="#0b572f" stroke-width="1.19" fill="#66a72e"/><path d="M161.62 263.4l-.17-.42c-1.83-2.82-2.52-6.76-3.22-11l-.52-3.5.27.98c1.13 3.8 2.17 7.6 3.13 11.55l.52 2.12v.3z" stroke="#000" stroke-opacity="0" stroke-width=".14" fill="#007f01"/><path d="M166.67 260.16c-4.18 3.53-6.27 10.7-7.05 17.76 5.3-1 5.4-11.56 7.05-17.76z" stroke="#0b572f" stroke-width="1.6" fill="#66a72e"/><path d="M159.88 277.5l.35-2.26c.87-5.63 2.7-11 5.83-14.23h.1l-5.84 16.5h-.44z" stroke="#000" stroke-opacity="0" stroke-width=".14" fill="#007f01"/><path d="M159.53 279.05c1.48-4.8-.17-1.7-3.13-10-.78-2.26-.6-7.34 1.57-7.76.87 2.25 2.52 4.5 2.78 8.45-.6-3.8 2.1-10.7 4.35-12.4-2.52 6.34-1.65 12.96-3.48 21.27-.17.85-.26 1.98 0 2.82l-2.1-2.4z" stroke="#0b572f" stroke-width="1.19" fill="#66a72e"/><path d="M157.45 261.57c.26 0 .17-.28.34-.14.34 7.47 2.52 8.6 2.43 14.8-.1.28-.96-1.4-.26-.57-2.78-3.24-5.66-10.42-2.52-14.1zm3.3 6.77c-.35-1.98 2.8-10.3 3.57-10l.17-.15-.53.98c-2.35 4.8-2 6.06-2.6 10.57-.1-.57.17 4.65 0 4.08-.27-.56-.7-5.07-.62-5.5z" stroke="#000" stroke-opacity="0" stroke-width=".14" fill="#007f01"/><path d="M163.36 278.34c-4 3.24-8.87 6.06-8.87 10.43 7.2-1.27 8.78-5.5 8.86-10.43z" stroke="#0b572f" stroke-width="1.19" fill="#66a72e"/><path d="M154.66 288.63v-.57c.44-2.95 2.96-5.07 5.74-7.18l2.7-2.12-.78 1c-1.92 2.53-4 4.92-6.18 7.46l-1.3 1.27-.18.13z" stroke="#000" stroke-opacity="0" stroke-width=".14" fill="#007f01"/><path d="M154.05 277.2c-.08 5.1-1.04 10.44 2.44 13.4 3.64-6.2 1.38-10-2.45-13.4z" stroke="#0b572f" stroke-width="1.19" fill="#66a72e"/><path d="M156.4 290.32l-.43-.42c-2-2.12-2-5.36-1.92-8.88l.18-3.24.34 1.13c.6 3.1 1.22 6.2 1.74 9.3l.2 1.98-.1.14z" stroke="#000" stroke-opacity="0" stroke-width=".14" fill="#05933f"/><path d="M148.74 295.67c4.53-2.67 5.3-6.34 6.97-11.4.8-2.55 3.23-6.2 5.66-6.77-.52 2.1-1.13 4.22-2.1 6.34 1.84-1.27 3.67-2.54 5.58-3.8-2.26 6.33-5.83 11.27-12.7 15.2-.8.57-1.57 1.28-2.1 2.12l-1.3-1.7z" stroke="#0b572f" stroke-width="1.19" fill="#66a72e"/><path d="M150.14 295.8l-.26-.7.43-.4c3.32-2.55 4.1-5.93 5.5-10.44.7-2.1 2.7-5.2 4.7-6.2l.6-.28-.1.28-.33.42c-4.88 5.22-4.96 11.56-10.53 17.33zM159.2 284h.25c.87-.57 1.74-1.27 2.7-1.83l2.34-1.7v.15l-.18.14c-3.83 3.38-5.74 6.06-8.44 9.86 1.04-1.7 2-3.38 2.7-5.07l.6-1.55z" stroke="#000" stroke-opacity="0" stroke-width=".14" fill="#007f01"/><path d="M157.53 293c-4.96 1.83-10.6 3.1-12.18 7.32 7.4 1 10.44-2.53 12.18-7.32z" stroke="#0b572f" stroke-width="1.21" fill="#66a72e"/><path d="M145.87 300.18h-.43.17l.27-.56c1.4-2.68 4.53-3.95 7.92-5.07l3.3-1.13-1.05.7c-2.78 1.7-5.48 3.53-8.44 5.08l-1.73.98z" stroke="#000" stroke-opacity="0" stroke-width=".14" fill="#007f01"/><path d="M148.3 290.04c-2.86 4.22-6.6 8.3-5.3 12.54 6.53-3.24 6.7-7.75 5.3-12.54z" stroke="#0b572f" stroke-width="1.19" fill="#66a72e"/><path d="M143.1 302.44l-.1-.57c-.52-2.96 1.22-5.63 3.22-8.45l2-2.82-.43 1.13c-1.14 2.96-2.28 5.92-3.67 8.88l-.87 1.7-.17.14z" stroke="#000" stroke-opacity="0" stroke-width=".14" fill="#007f01"/><path d="M137 306.24l6.1-5.2 8.6-9.3c-1.04 3.8-2.43 7.6-6 10.42 2.7-1.4 6-2.26 9.4-2.68-3.3 2.82-6.96 5.07-11.84 5.07l-4.87 2.1-1.4-.4z" stroke="#0b572f" stroke-width="1.19" fill="#66a72e"/><path d="M137.6 306.24l-.26-.14 5.84-4.93v-.14l8.17-8.6h-.08l-.52 1c-2.8 4.78-7.23 9.15-12.8 12.67l-.34.14zm6.97-3.38l.95-.7.1.14h.17c2-1.13 4.34-1.84 6.86-2.26l1.9-.28-.42.14c-3.22 1.55-6.7 2.82-9.57 2.96z" stroke="#000" stroke-opacity="0" stroke-width=".14" fill="#007f01"/><path d="M108.28 318.5c4.18-1.27 11.75-6.9 16-7.75 4.45-.56 8.98-1 13.67-1l7.92-3.23h1.05c-4.1-1.83-8.53-1.7-12.88 0 3.4-1.83 5.22-5.07 4.35-7.46-3.5 1.7-7.23 3.52-9.84 7.04l-4.27 3.52c-4.36 1.27-9.58 2.68-14.28 3.95-.26 1.7-1.74 2.82-1.74 4.93z" stroke="#0b572f" stroke-width="1.19" fill="#66a72e"/><path d="M124.3 309.76h.08l4.26-3.52c2.35-3.1 4.35-4.37 7.14-5.78l2.52-1.26.18.7-2.35 2.1c-2.27 2.4-5.14 3.4-8.1 6.07 1.66 0 3.4-.14 4.53-.84.26-.14.52-.42.78-.42l.52-.42v.14c-.08.14.1.3.18.14 3.83-1.4 7.74-1.7 11.3-.56l.53.28c0-.14-.08 0-.08 0l-.7.28h-1.05c-4 .15-8.18.15-11.23 1.7l-8.53 1.4zM109.06 318.08l.87-1.55.27-1c.43-.13 1.82-1.26 13.3-4.78l1.14-.14h-.17c-5.22 1.42-10.36 5.08-15.4 7.48z" stroke="#000" stroke-opacity="0" stroke-width=".14" fill="#007f01"/><path d="M108.2 318.36c1.3-.56 2.78-1.7 3.3-4.93-2.96-.42-3.57 1.83-3.3 4.93z" stroke="#0b572f" stroke-width="1.2" fill="#ee9948"/><path d="M139.96 314.4c.17 1.14.7 3.1-2.7 4.38-.35-2.67 1.22-4.22 2.7-4.37z" stroke="#0b572f" stroke-width="1.16" fill="#ee9948"/><path d="M116.8 305.1c.1 2 2.62 3.4 4.62 4.38.7.43 1.4-.28 1.48-.84-2.52-2.12-3.57-3.95-3.74-4.93-.7.43-2.8-.28-2.35 1.4zM125 309.2l1.38.7c1.57-1.4 4.7-3.24 4.44-5.07l-2.8-.28c.45.7-2 3.24-3.03 4.65z" stroke="#000" stroke-opacity="0" stroke-width=".14" fill="#75aadb"/><path d="M117.33 304.27c.44-.14.26-.56.87-.42.52 1.4 2.52 4.08 4.6 5.2.2.15-1.2-.13-.94.3-2-1.14-4.7-3.67-4.53-5.08z" stroke="#000" stroke-opacity="0" stroke-width=".14" fill="#ececec"/><path d="M128.9 304.7c-.43 1.26-1.56 3.1-3.13 4.22l-.1.56c1.75-.84 3.93-2.96 4.63-5.07l-1.4.3z" stroke="#000" stroke-opacity="0" stroke-width=".14" fill="#e6e6e6"/><path d="M123.94 311.46c.44 1.83.53 3.94 1.48 5.35l3.57-.7c-2.8-2.95-2.7-4.08-3.4-5.77l-1.66 1.13zM130.64 318.08c1.14.7 1.22 2.68 1.66 4.37.43-.43.78-1.13 2.35-1-.35-1.54-.52-3.23-1.83-4.5l-2.18 1.13z" stroke="#000" stroke-opacity="0" stroke-width=".14" fill="#75aadb"/><path d="M124.47 311.3l.6-.27c.35 1.13 1.57 4.1 2.96 5.5l-1.56.14c-1.22-1.27-1.48-3.52-2-5.36z" stroke="#000" stroke-opacity="0" stroke-width=".14" fill="#ececec"/><path d="M131.5 317.5c-.25-1.25.8-.4.88-.4.6.98 1.48 3.37 1.48 4.36-1.04.14-.95.42-1.2.7.33-.98-.62-3.66-1.15-4.65z" stroke="#000" stroke-opacity="0" stroke-width=".14" fill="#f9f9f9"/><path d="M128.82 319.06c1.74-.98 4-2.1 4.17-1.55 0-.4-.35-.7-.62-.97-.08-.14-.17-.14-.17-.28-.42-.57-.7-.85-1.38-1.13-.87.28-1.65.56-2.35.84-4.35 1.27-3.13-.42-3.3 0-.36 1.27.7 3.95 3.65 3.1z" stroke="#000" stroke-opacity="0" stroke-width=".14" fill="#75aadb"/><path d="M125.25 317.23c.87-.28.87.7 3.13-.14 1.05-.43 2.26-1.14 3.4-1.14.7.15.87.85 1.2 1.27-.86-.56-1.2-.28-2.77.43-1.64.98-3.56 1.7-4.34.84-.26-.28-.6-1-.6-1.27z" stroke="#000" stroke-opacity="0" stroke-width=".14" fill="#fff"/><path d="M122.8 310.9l1.32.7c-.7 2.8-2.1 4.65-3.05 5.77l-3.83-.56c1.05-.27 4.35-3.5 5.57-5.9zM113.24 322.02c.78-.56 1.74 0 2.7.57-.1-3.25-.1-4.52.26-5.65l-1.3-1c-1.22 1-1.5 4.1-1.66 6.07z" stroke="#000" stroke-opacity="0" stroke-width=".14" fill="#75aadb"/><path d="M122.8 311.6c-.25 1.7-2.77 4.65-4.43 5.5 1.75 1.82 4.88-3.95 5.14-5.08-.08 0-.5 0-.7-.42z" stroke="#000" stroke-opacity="0" stroke-width=".14" fill="#ececec"/><path d="M115.16 315.96c1.3-1.12-.96 4.65-.1 6.06-.5-.14-.77-.14-1.04-.14-.17-1.55.27-4.65 1.14-5.92z" stroke="#000" stroke-opacity="0" stroke-width=".14" fill="#f9f9f9"/><path d="M114.3 316.67c1.03-1.27 1.9-1.55 3.12-1 .87.72 2.43 2 3.9 1.42-.33 1.12-1.47 1.82-4 1.12-1.47-.56-2.7-1.55-3.03-1.55z" stroke="#000" stroke-opacity="0" stroke-width=".14" fill="#75aadb"/><path d="M114.72 316.1c.35-.42 1.22-1.26 2.44.3 1.3 1.68 2.6 1.4 3.9 1.1-.42 1.28-2.77 1.28-3.56.44-1.82-1.7-2.26-1.7-2.78-1.83z" stroke="#000" stroke-opacity="0" stroke-width=".14" fill="#fff"/><path d="M119.07 302.3c6.96 1.12 6.6.28 10.27 0 1.9.7 1.83 1.55 1.4 3.24-3.84-1.98-5.58.42-7.75-.43-2.88-.97-6.02-.55-6.1.16-.27-1.4.52-2.68 2.17-2.96z" stroke="#000" stroke-opacity="0" stroke-width=".14" fill="#75aadb"/><path d="M117.6 303c-.62.42-.88 1.27-.8 1.55 1.3-.42 2.97-1 5.14-.56 2.6.97 3.48.13 4.88-.15 3.3-.3 3.9.28 4.1.98.07-.56.25-1.27-.36-1.83-1.4-.42-2.6-.14-3.74.14-2.1.7-4.1.42-6.27-.14-1.48-.28-2.18-.14-2.96 0z" stroke="#000" stroke-opacity="0" stroke-width=".14" fill="#fff"/><path d="M121.68 309.48c.18-.42.44-.84.96-.98.87-.3 1.74-.3 2.6-.14.7 0 1.05.56 1.4 1.26 0 .43.1.85-.17 1.27-.7 1.26-1.22.98-1.83 1.12-.52 0-.78 0-1.57-.14-.78 0-1.4-.57-1.4-.7-.08-.57-.08-1.13 0-1.7z" stroke="#000" stroke-opacity="0" stroke-width=".14" fill="#75aadb"/><path d="M123.5 308.36c-.7.84-.6 2.1-.16 3.66.26.14.52.28.95 0 1.65-1.55.78-3.24.5-3.66-.33-.15-1.03-.15-1.3 0z" stroke="#000" stroke-opacity="0" stroke-width=".14" fill="#fff"/><path d="M192.73 160H1320v184.27H192.73z" stroke="#000" stroke-opacity="0" stroke-width="2" fill="#fff" fill-opacity="0"/><use xlink:href="#a" transform="matrix(1,0,0,1,197.72727272727263,165) translate(0 97.85555555555555)"/><use xlink:href="#b" transform="matrix(1,0,0,1,197.72727272727263,165) translate(0 136.1)"/><use xlink:href="#c" transform="matrix(1,0,0,1,197.72727272727263,165) translate(124.6888888888889 136.1)"/><use xlink:href="#d" transform="matrix(1,0,0,1,197.72727272727263,165) translate(256.4666666666667 136.1)"/><use xlink:href="#e" transform="matrix(1,0,0,1,197.72727272727263,165) translate(296.02222222222224 136.1)"/><use xlink:href="#f" transform="matrix(1,0,0,1,197.72727272727263,165) translate(499.3555555555556 136.1)"/><use xlink:href="#g" transform="matrix(1,0,0,1,197.72727272727263,165) translate(575.3777777777779 136.1)"/><defs><path d="M690-446c0 113-60 185-144 221L703 0H529L394-195H245V0H83v-700h303c178 3 304 81 304 254zm-164 0c-1-85-59-123-149-122H245v244h132c90 1 148-38 149-122" id="h"/><path d="M625-130V0H83v-700h529v130H244v152h325v126H244v162h381" id="i"/><path d="M725-700V0H592L243-425V0H83v-700h134l348 425v-425h160" id="j"/><path d="M386-700c178 3 304 81 304 254 0 172-126 251-304 253H245V0H83v-700h303zm-9 375c90 1 148-37 149-121-1-85-59-123-149-122H245v243h132" id="k"/><path d="M422 12C196 12 39-127 39-350s157-362 383-362 383 139 383 362S648 12 422 12zm0-138c134 0 219-89 219-224s-85-224-219-224-219 89-219 224 85 224 219 224" id="l"/><path d="M245-570v185h324v130H245V0H83v-700h529v130H245" id="m"/><g id="a"><use transform="matrix(0.06666666666666667,0,0,0.06666666666666667,0,0)" xlink:href="#h"/><use transform="matrix(0.06666666666666667,0,0,0.06666666666666667,49,0)" xlink:href="#i"/><use transform="matrix(0.06666666666666667,0,0,0.06666666666666667,93.73333333333333,0)" xlink:href="#j"/><use transform="matrix(0.06666666666666667,0,0,0.06666666666666667,147.6,0)" xlink:href="#i"/><use transform="matrix(0.06666666666666667,0,0,0.06666666666666667,192.33333333333331,0)" xlink:href="#k"/><use transform="matrix(0.06666666666666667,0,0,0.06666666666666667,241.13333333333333,0)" xlink:href="#l"/><use transform="matrix(0.06666666666666667,0,0,0.06666666666666667,297.4,0)" xlink:href="#m"/></g><path d="M203-350c0 137 89 220 227 224 47 0 89-10 126-30v-205h148v284c-67 52-171 89-283 89C195 12 39-126 39-350c0-225 158-362 385-362 131 0 230 48 293 121l-104 96c-50-53-110-79-181-79-140 3-229 85-229 224" id="n"/><path d="M83-700h162V0H83v-700" id="o"/><path d="M610-205C610 56 188 53 28-69l55-122c53 40 142 73 231 73 75 0 135-16 135-75 0-40-36-56-69-68-148-47-334-46-338-233-5-243 366-262 538-156l-50 123c-65-37-129-55-194-55-75 0-128 20-133 80 0 24 12 42 37 54 140 60 370 44 370 243" id="p"/><path d="M228-568H4v-132h610v132H390V0H228v-568" id="q"/><g id="b"><use transform="matrix(0.022222222222222223,0,0,0.022222222222222223,0,0)" xlink:href="#h"/><use transform="matrix(0.022222222222222223,0,0,0.022222222222222223,16.333333333333336,0)" xlink:href="#i"/><use transform="matrix(0.022222222222222223,0,0,0.022222222222222223,31.200000000000003,0)" xlink:href="#n"/><use transform="matrix(0.022222222222222223,0,0,0.022222222222222223,48.333333333333336,0)" xlink:href="#o"/><use transform="matrix(0.022222222222222223,0,0,0.022222222222222223,55.62222222222223,0)" xlink:href="#p"/><use transform="matrix(0.022222222222222223,0,0,0.022222222222222223,69.57777777777778,0)" xlink:href="#q"/><use transform="matrix(0.022222222222222223,0,0,0.022222222222222223,83.31111111111112,0)" xlink:href="#h"/><use transform="matrix(0.022222222222222223,0,0,0.022222222222222223,99.64444444444445,0)" xlink:href="#l"/></g><path d="M544-150H219L157 0H-9l312-700h160L776 0H606zm-51-123L382-541 271-273h222" id="r"/><path d="M418 12C194 12 39-127 39-350s155-362 380-362c130 0 227 50 288 124l-104 96c-47-55-106-82-176-82-137 4-224 87-224 224s87 220 224 224c70 0 129-28 176-83l104 96C646-37 548 12 418 12" id="s"/><path d="M83-700h162v568h351V0H83v-700" id="t"/><g id="c"><use transform="matrix(0.022222222222222223,0,0,0.022222222222222223,0,0)" xlink:href="#j"/><use transform="matrix(0.022222222222222223,0,0,0.022222222222222223,17.955555555555556,0)" xlink:href="#r"/><use transform="matrix(0.022222222222222223,0,0,0.022222222222222223,34.75555555555556,0)" xlink:href="#s"/><use transform="matrix(0.022222222222222223,0,0,0.022222222222222223,51.044444444444444,0)" xlink:href="#o"/><use transform="matrix(0.022222222222222223,0,0,0.022222222222222223,58.33333333333334,0)" xlink:href="#l"/><use transform="matrix(0.022222222222222223,0,0,0.022222222222222223,77.0888888888889,0)" xlink:href="#j"/><use transform="matrix(0.022222222222222223,0,0,0.022222222222222223,95.04444444444445,0)" xlink:href="#r"/><use transform="matrix(0.022222222222222223,0,0,0.022222222222222223,112.06666666666668,0)" xlink:href="#t"/></g><path d="M787-350C787-124 630 0 401 0H83v-700h318c229 5 386 124 386 350zm-164 0c2-134-95-217-230-217H245v434h148c136 2 232-83 230-217" id="u"/><g id="d"><use transform="matrix(0.022222222222222223,0,0,0.022222222222222223,0,0)" xlink:href="#u"/><use transform="matrix(0.022222222222222223,0,0,0.022222222222222223,18.355555555555558,0)" xlink:href="#i"/></g><path d="M720 0l-1-420L513-74h-73L235-411V0H83v-700h134l262 435 258-435h133l2 700H720" id="v"/><g id="e"><use transform="matrix(0.022222222222222223,0,0,0.022222222222222223,0,0)" xlink:href="#i"/><use transform="matrix(0.022222222222222223,0,0,0.022222222222222223,14.911111111111111,0)" xlink:href="#j"/><use transform="matrix(0.022222222222222223,0,0,0.022222222222222223,32.86666666666667,0)" xlink:href="#m"/><use transform="matrix(0.022222222222222223,0,0,0.022222222222222223,47.06666666666667,0)" xlink:href="#i"/><use transform="matrix(0.022222222222222223,0,0,0.022222222222222223,61.97777777777778,0)" xlink:href="#h"/><use transform="matrix(0.022222222222222223,0,0,0.022222222222222223,78.31111111111112,0)" xlink:href="#v"/><use transform="matrix(0.022222222222222223,0,0,0.022222222222222223,99.53333333333333,0)" xlink:href="#i"/><use transform="matrix(0.022222222222222223,0,0,0.022222222222222223,114.44444444444444,0)" xlink:href="#u"/><use transform="matrix(0.022222222222222223,0,0,0.022222222222222223,132.57777777777778,0)" xlink:href="#r"/><use transform="matrix(0.022222222222222223,0,0,0.022222222222222223,149.6,0)" xlink:href="#u"/><use transform="matrix(0.022222222222222223,0,0,0.022222222222222223,167.95555555555555,0)" xlink:href="#i"/><use transform="matrix(0.022222222222222223,0,0,0.022222222222222223,182.86666666666667,0)" xlink:href="#p"/></g><g id="f"><use transform="matrix(0.022222222222222223,0,0,0.022222222222222223,0,0)" xlink:href="#k"/><use transform="matrix(0.022222222222222223,0,0,0.022222222222222223,16.266666666666666,0)" xlink:href="#l"/><use transform="matrix(0.022222222222222223,0,0,0.022222222222222223,35.022222222222226,0)" xlink:href="#s"/><use transform="matrix(0.022222222222222223,0,0,0.022222222222222223,50.97777777777777,0)" xlink:href="#l"/></g><path d="M394 12C194 13 77-106 77-308v-392h162v386c0 125 52 188 156 188 111-2 157-68 156-188v-386h160v392c2 202-117 321-317 320" id="w"/><g id="g"><use transform="matrix(0.022222222222222223,0,0,0.022222222222222223,0,0)" xlink:href="#m"/><use transform="matrix(0.022222222222222223,0,0,0.022222222222222223,14.200000000000001,0)" xlink:href="#h"/><use transform="matrix(0.022222222222222223,0,0,0.022222222222222223,30.53333333333334,0)" xlink:href="#i"/><use transform="matrix(0.022222222222222223,0,0,0.022222222222222223,45.400000000000006,0)" xlink:href="#s"/><use transform="matrix(0.022222222222222223,0,0,0.022222222222222223,61.55555555555556,0)" xlink:href="#w"/><use transform="matrix(0.022222222222222223,0,0,0.022222222222222223,79.06666666666666,0)" xlink:href="#i"/><use transform="matrix(0.022222222222222223,0,0,0.022222222222222223,93.97777777777777,0)" xlink:href="#j"/><use transform="matrix(0.022222222222222223,0,0,0.022222222222222223,111.93333333333334,0)" xlink:href="#q"/><use transform="matrix(0.022222222222222223,0,0,0.022222222222222223,125.66666666666667,0)" xlink:href="#i"/><use transform="matrix(0.022222222222222223,0,0,0.022222222222222223,140.57777777777778,0)" xlink:href="#p"/></g></defs></g></svg>